<?xml version="1.0" standalone="no"?>
<!DOCTYPE svg PUBLIC "-//W3C//DTD SVG 20010904//EN"
 "http://www.w3.org/TR/2001/REC-SVG-20010904/DTD/svg10.dtd">
<svg version="1.0" xmlns="http://www.w3.org/2000/svg"
 width="2045.000000pt" height="2045.000000pt" viewBox="0 0 2045.000000 2045.000000"
 preserveAspectRatio="xMidYMid meet">
<metadata>
Created by potrace 1.14, written by Peter Selinger 2001-2017
</metadata>
<g transform="translate(0.000000,2045.000000) scale(0.100000,-0.100000)"
fill="#000000" stroke="none">
<path d="M1948 20445 c-2 -1 -34 -5 -73 -9 -159 -15 -393 -68 -510 -116 -223
-91 -280 -121 -450 -233 -202 -135 -392 -321 -544 -535 -28 -39 -51 -74 -51
-77 0 -2 -15 -28 -34 -57 -46 -74 -122 -235 -163 -348 -37 -101 -89 -301 -98
-378 -3 -26 -10 -76 -15 -112 -10 -79 -8 -16710 3 -16760 4 -19 15 -73 23
-120 35 -189 116 -420 206 -590 42 -79 173 -281 205 -315 10 -11 31 -36 46
-55 142 -175 402 -384 617 -497 184 -97 426 -180 600 -208 25 -4 53 -9 64 -11
10 -2 51 -7 90 -11 90 -10 16605 -10 16706 -1 86 9 99 11 235 39 308 63 646
229 895 439 423 357 688 862 736 1407 9 102 10 16506 1 16639 -20 299 -128
633 -293 905 -144 240 -365 475 -589 630 -27 19 -52 37 -55 40 -3 3 -12 9 -20
12 -8 4 -33 18 -55 32 -64 41 -254 132 -342 164 -116 43 -300 90 -418 107 -22
3 -53 8 -70 11 -28 4 -16642 12 -16647 8z"/>
</g>
</svg>
